<?xml version="1.0" ?><svg viewBox="0 0 64 64" xmlns="http://www.w3.org/2000/svg"><title/><g data-name="06-Wash hands" id="_06-Wash_hands"><path d="M5,37H4a3,3,0,0,0-3,3H1a4,4,0,0,0,4,4H8l13-2" style="fill:none;stroke:#000;stroke-linejoin:round;stroke-width:2px"/><polyline points="31 27 25 27 25 27" style="fill:none;stroke:#000;stroke-linejoin:round;stroke-width:2px"/><path d="M24,47,13,49H8.031a3,3,0,0,1-2.785-1.886L4,44V43" style="fill:none;stroke:#000;stroke-linejoin:round;stroke-width:2px"/><path d="M9,49l.994,2.486A4,4,0,0,0,13.708,54h2.929a2.01,2.01,0,0,0,.7-.127L26,52" style="fill:none;stroke:#000;stroke-linejoin:round;stroke-width:2px"/><path d="M26,27V26a2,2,0,0,0-2-2H15.472A2.472,2.472,0,0,1,13,21.528h0a2.47,2.47,0,0,1,1.367-2.211L21,17l9,1L48,33H63V51L46,47l-5,5L22.392,56.9a3.151,3.151,0,0,1-.8.1H19.3a3.13,3.13,0,0,1-2.213-.917L15,54" style="fill:none;stroke:#000;stroke-linejoin:round;stroke-width:2px"/><path d="M20.105,24H18.686A2.687,2.687,0,0,0,16,26.686h0a2.688,2.688,0,0,0,1.037,2.121L24,34a4.056,4.056,0,0,0,2.022,1h0A2.978,2.978,0,0,0,29,32.022v-.533a2.977,2.977,0,0,0-1.191-2.382l-6.093-4.57A2.689,2.689,0,0,0,20.105,24Z" style="fill:none;stroke:#000;stroke-linejoin:round;stroke-width:2px"/><path d="M15.105,28H13.686A2.687,2.687,0,0,0,11,30.686h0a2.688,2.688,0,0,0,1.037,2.121l7.156,5.566A2.984,2.984,0,0,0,21.022,39h0A2.978,2.978,0,0,0,24,36.022v-.533a2.977,2.977,0,0,0-1.191-2.382l-6.093-4.57A2.689,2.689,0,0,0,15.105,28Z" style="fill:none;stroke:#000;stroke-linejoin:round;stroke-width:2px"/><path d="M10.28,31.491A2.509,2.509,0,0,0,8.789,31H7.48A2.461,2.461,0,0,0,5,33.442H5a2.419,2.419,0,0,0,.948,1.921l6.615,5.067a2.782,2.782,0,0,0,1.688.57h0A2.728,2.728,0,0,0,17,38.293v-.471A2,2,0,0,0,16,36Z" style="fill:none;stroke:#000;stroke-linejoin:round;stroke-width:2px"/><path d="M24,15v-.623A3.377,3.377,0,0,1,27.377,11h0a3.377,3.377,0,0,1,2.637,1.267L33,16l1,5" style="fill:none;stroke:#000;stroke-linejoin:round;stroke-width:2px"/><polyline points="46.996 55.346 63 63 63 51" style="fill:none;stroke:#000;stroke-linejoin:round;stroke-width:2px"/><line style="fill:none;stroke:#000;stroke-linejoin:round;stroke-width:2px" x1="43.001" x2="45.001" y1="53.435" y2="54.392"/><path d="M1,40V38a4,4,0,0,1,4-4H5" style="fill:none;stroke:#000;stroke-linejoin:round;stroke-width:2px"/><polyline points="1 7 9 7 9 9 18 9 18 1 1 1" style="fill:none;stroke:#000;stroke-linejoin:round;stroke-width:2px"/><line style="fill:none;stroke:#000;stroke-linejoin:round;stroke-width:2px" x1="10" x2="10" y1="9" y2="22"/><line style="fill:none;stroke:#000;stroke-linejoin:round;stroke-width:2px" x1="17" x2="17" y1="9" y2="18"/><path d="M8,56a2.7,2.7,0,0,1-3,3,2.7,2.7,0,0,1-3-3c0-2.209,3-5,3-5S8,53.791,8,56Z" style="fill:none;stroke:#000;stroke-linejoin:round;stroke-width:2px"/><path d="M13,60.75c0,1.657-.895,2.25-2,2.25s-2-.593-2-2.25S11,57,11,57,13,59.093,13,60.75Z" style="fill:none;stroke:#000;stroke-linejoin:round;stroke-width:2px"/><line style="fill:none;stroke:#000;stroke-linejoin:round;stroke-width:2px" x1="10" x2="10" y1="24" y2="28"/></g></svg>