<?xml version="1.0" ?><svg viewBox="0 0 512 512" xmlns="http://www.w3.org/2000/svg"><g data-name="/ OUTLINE" id="_OUTLINE"><rect height="16" width="24" x="288" y="152"/><rect height="80" width="16" x="368" y="416"/><path d="M256,352a72,72,0,1,0,72,72A72.08124,72.08124,0,0,0,256,352Zm0,128a56,56,0,1,1,56-56A56.06353,56.06353,0,0,1,256,480Z"/><polygon points="282.343 386.343 256 412.687 229.657 386.343 218.343 397.657 244.687 424 218.343 450.343 229.657 461.657 256 435.313 282.343 461.657 293.657 450.343 267.313 424 293.657 397.657 282.343 386.343"/><path d="M468.62451,407.17822a87.666,87.666,0,0,0-60.4414-58.541L312,321.91919V291.024a87.961,87.961,0,0,0,55.12915-69.64453l12.04956-6.025A37.66655,37.66655,0,0,0,368,144.42676V82.00647A68.17651,68.17651,0,0,0,400,24V16H208a64.0727,64.0727,0,0,0-64,64v64.42676a37.66672,37.66672,0,0,0-11.1792,70.92773L136,216.94421v26.01233a7.96062,7.96062,0,0,1-1.4458,4.58741L26.69238,401.63232A59.9743,59.9743,0,0,0,75.8252,496a60.21346,60.21346,0,0,0,56.24072-39.14453l41.06152-110.86572,33.57568-9.32666a94.24021,94.24021,0,0,0,98.59376,0l98.604,27.39013A71.72881,71.72881,0,0,1,453.353,411.95068l27.01123,86.43555,15.27148-4.77246ZM352,125.16858l-65.83862-20.258,60.91235-14.21283c1.67175-.39007,3.31055-.84973,4.92627-1.35345Zm32,56.49695A21.54734,21.54734,0,0,1,372.02344,201.044L368,203.05573v-42.2992A21.701,21.701,0,0,1,384,181.66553ZM160,80a48.05436,48.05436,0,0,1,48-48H383.39941A52.24249,52.24249,0,0,1,343.438,75.1167L160,117.91846ZM128,181.66553a21.70119,21.70119,0,0,1,16-20.909v25.89771a57.87066,57.87066,0,0,0-5.7561,13.41125A21.5243,21.5243,0,0,1,128,181.66553Zm-10.938,269.6333A44.14941,44.14941,0,0,1,75.8252,480a43.97438,43.97438,0,0,1-36.0254-69.19189L147.66211,256.71924A23.88585,23.88585,0,0,0,152,242.95654V216.11865A42.04266,42.04266,0,0,1,159.55884,192H160v-.636l.05566-.07788.00147-.00244A41.938,41.938,0,0,1,188.375,174.01318a43.14847,43.14847,0,0,1,6.22119-.45312,42.28782,42.28782,0,0,1,39.54028,27.64252,23.32266,23.32266,0,0,0,2.31934,9.5719,42.18385,42.18385,0,0,1-3.10229,21.75775l-.49952,1.167a42.02344,42.02344,0,0,1-23.16894,22.61084l-14.061,5.624a24.04147,24.04147,0,0,0-13.59277,13.94824ZM200,321.91925l-20.01685,5.56049,14.39844-38.87568Q197.149,289.9119,200,291.02356Zm96,1.65051a78.272,78.272,0,0,1-80,0V297.18683l8.40967,3.23456a87.849,87.849,0,0,0,63.18066,0L296,297.18683ZM296.11414,280H296v.04388l-14.15381,5.44391a71.86926,71.86926,0,0,1-51.69238,0L216,280.04388V280h-.11414l-9.73205-3.74316c-.54126-.20819-1.076-.43531-1.61279-.6568l11.08642-4.43451a58.2234,58.2234,0,0,0,18.76758-12.086l.13477.40436a68.31735,68.31735,0,0,1,42.94042,0l5.05958-15.17871a84.32781,84.32781,0,0,0-35.19153-3.818c.0719-.16375.15222-.32208.22278-.48669l.49951-1.167a58.17355,58.17355,0,0,0,4.21374-15.41932A23.57725,23.57725,0,0,0,257.47363,224H264V208h-6.52637a7.26946,7.26946,0,0,1-5.68713-2.72931,58.505,58.505,0,0,0-1.47144-6.12427,7.34159,7.34159,0,0,1,.87439-2.24652l19.67041-32.78418-13.71972-8.23144-15.46546,25.77551a58.17152,58.17152,0,0,0-11.40661-11.80872A59.45091,59.45091,0,0,0,224,165.6059V152H200v5.8186a58.9197,58.9197,0,0,0-13.93311.36206A57.937,57.937,0,0,0,160,168.82745V134.34821l95.2207-22.21814L352,141.90833v67.14782a72.43033,72.43033,0,0,1-46.15381,67.20069Z"/></g></svg>