<?xml version="1.0" ?><svg viewBox="0 0 512 512" xmlns="http://www.w3.org/2000/svg"><g data-name="/ OUTLINE" id="_OUTLINE"><path d="M425.70557,86.29443A239.99992,239.99992,0,1,0,86.29443,425.70557,239.99992,239.99992,0,1,0,425.70557,86.29443ZM414.39209,414.39209A224.00024,224.00024,0,0,1,97.60791,97.60791,224.00024,224.00024,0,0,1,414.39209,414.39209Z"/><path d="M390.07422,96.97168A208.14008,208.14008,0,0,0,256,48C141.30859,48,48,141.30859,48,256A208.1485,208.1485,0,0,0,96.8999,389.98877l6.17334,6.25146,293.6543-293.6538ZM192,284.68634l-27.14148,27.1416-3.16907-6.33771A16.08117,16.08117,0,0,1,160,298.33447V272a16,16,0,0,1,32,0Zm80-122.35187a16.08012,16.08012,0,0,1-1.689,7.15479l-3.77735,7.55469A24.11871,24.11871,0,0,0,264,187.77686v.69091a23.958,23.958,0,0,0,7.1416,17.07691l-63.2987,63.29876a32.02291,32.02291,0,0,0-14.168-23.50195l2.20446-9.91961a24.12144,24.12144,0,0,1,15.83887-17.562l19.87158-6.62353A23.97046,23.97046,0,0,0,248,188.46777v-.69091a24.12232,24.12232,0,0,0-2.53369-10.7334l-3.77686-7.55323A16.08117,16.08117,0,0,1,240,162.33447V136a16,16,0,0,1,32,0Zm48-5.64831V136a16.00238,16.00238,0,0,1,29.4137-8.7276Zm40.83276-40.83283A31.9803,31.9803,0,0,0,304,136v26.33447a32.12035,32.12035,0,0,0,1.31079,9.04084l-22.84936,22.84948A7.976,7.976,0,0,1,280,188.46777v-.69091a8.04253,8.04253,0,0,1,.84424-3.57764l3.77783-7.55469A32.16384,32.16384,0,0,0,288,162.33447V136a32,32,0,0,0-64,0v26.33447a32.165,32.165,0,0,0,3.37842,14.311l3.77734,7.55371A8.04253,8.04253,0,0,1,232,187.77686v.69091a7.9905,7.9905,0,0,1-5.47021,7.58985l-10.52967,3.50982-10.52942-3.50982A7.99031,7.99031,0,0,1,200,188.46777v-.69091a8.04253,8.04253,0,0,1,.84424-3.57764l3.77783-7.55469A32.16384,32.16384,0,0,0,208,162.33447V136a32,32,0,0,0-64,0v26.33447a32.165,32.165,0,0,0,3.37842,14.311l3.77734,7.55371A8.04253,8.04253,0,0,1,152,187.77686v.69091a7.9905,7.9905,0,0,1-5.47021,7.58985l-19.8711,6.62353a40.201,40.201,0,0,0-26.39844,29.27L88.19043,286.26465l15.61914,3.4707,12.06982-54.31347a24.12144,24.12144,0,0,1,15.83887-17.562l19.87158-6.62353A23.97046,23.97046,0,0,0,168,188.46777v-.69091a24.11871,24.11871,0,0,0-2.53369-10.73291l-3.77686-7.55372A16.08117,16.08117,0,0,1,160,162.33447V136a16,16,0,0,1,32,0v26.33447a16.08012,16.08012,0,0,1-1.689,7.15479l-3.77735,7.55469A24.11871,24.11871,0,0,0,184,187.77686v.69091a23.966,23.966,0,0,0,11.17877,20.28943,40.17947,40.17947,0,0,0-14.91852,23.194l-1.81158,8.15192C177.63947,240.0415,176.82471,240,176,240a32.036,32.036,0,0,0-32,32v26.33447a32.165,32.165,0,0,0,3.37842,14.311l3.77734,7.55371A8.04253,8.04253,0,0,1,152,323.77686v.69091c0,.07746-.01062.15412-.01282.23145L103.72656,372.96A192.19713,192.19713,0,0,1,64,256C64,150.13086,150.13086,64,256,64a192.17382,192.17382,0,0,1,116.96,39.72607Z"/><path d="M415.02832,121.92578l-5.61475-6.65332L115.27246,409.41357l6.65332,5.61475A208.14008,208.14008,0,0,0,256,464c114.69141,0,208-93.30859,208-208A208.13717,208.13717,0,0,0,415.02832,121.92578Zm-99.8938,110.2536a23.73834,23.73834,0,0,1,.98609,3.243l2.20459,9.91907A31.99217,31.99217,0,0,0,304,272v26.33447a32.165,32.165,0,0,0,3.37842,14.311l3.77734,7.55371A8.04253,8.04253,0,0,1,312,323.77686v.69091a7.9905,7.9905,0,0,1-5.47021,7.58985l-19.8711,6.62353a40.201,40.201,0,0,0-26.39844,29.27L256,387.12207l-4.26025-19.1709a40.20018,40.20018,0,0,0-26.39844-29.27l-12.53156-4.17694ZM256,448a192.17382,192.17382,0,0,1-116.96-39.72607l61.126-61.126c.082.02832.16235.061.24456.08844l19.8711,6.62353a24.12144,24.12144,0,0,1,15.83887,17.562l12.06982,54.31347h15.61914l12.06982-54.31347a24.12144,24.12144,0,0,1,15.83887-17.562l19.87158-6.62353A23.97046,23.97046,0,0,0,328,324.46777v-.69091a24.11871,24.11871,0,0,0-2.53369-10.73291l-3.77686-7.55372A16.08117,16.08117,0,0,1,320,298.33447V272a16,16,0,0,1,32,0v26.33447a16.08012,16.08012,0,0,1-1.689,7.15479l-3.77735,7.55469A24.11871,24.11871,0,0,0,344,323.77686v.69091a23.97027,23.97027,0,0,0,16.41064,22.76856l19.8711,6.62353a24.12131,24.12131,0,0,1,15.83887,17.5625l2.80737,12.63172A191.56137,191.56137,0,0,1,256,448Zm155.73975-80.04883a40.201,40.201,0,0,0-26.39844-29.27l-19.87061-6.62353A7.99031,7.99031,0,0,1,360,324.46777v-.69091a8.04253,8.04253,0,0,1,.84424-3.57764l3.77783-7.55469A32.16384,32.16384,0,0,0,368,298.33447V272a32.036,32.036,0,0,0-32-32c-.82471,0-1.63928.0415-2.44849.10309l-1.81176-8.15192a40.00487,40.00487,0,0,0-4.65906-11.71789l20.00867-20.00861a23.95083,23.95083,0,0,0,13.32128,11.01166l19.8711,6.62353a24.12144,24.12144,0,0,1,15.83887,17.562l12.06982,54.31347,15.61914-3.4707-12.06982-54.31348a40.201,40.201,0,0,0-26.39844-29.27l-19.87061-6.62353A7.99031,7.99031,0,0,1,360,188.46777v-.69091h-.46289L408.27393,139.04a191.81572,191.81572,0,0,1,3.50048,229.06744Z"/></g></svg>