<?xml version="1.0" ?><svg viewBox="0 0 512 512" xmlns="http://www.w3.org/2000/svg"><g data-name="/ OUTLINE" id="_OUTLINE"><rect height="16" width="24" x="288" y="144"/><rect height="16" width="24" x="200" y="144"/><path d="M468.3916,406.43359a87.832,87.832,0,0,0-59.16406-58.17578L320,322.01367V285.14648a87.9574,87.9574,0,0,0,46.74146-63.573l12.43725-6.219A37.66655,37.66655,0,0,0,368,144.42676V82.00659A68.17632,68.17632,0,0,0,400,24V16H208a64.07207,64.07207,0,0,0-64,64v64.42676a37.66688,37.66688,0,0,0-11.17969,70.92773l12.438,6.219A87.95369,87.95369,0,0,0,192,285.147v36.8667l-89.22949,26.24414a87.83194,87.83194,0,0,0-59.16309,58.17676L16.36426,493.61426l15.27148,4.77148,27.24317-87.17969a71.86746,71.86746,0,0,1,48.40625-47.59863l91.7705-26.99121a121.41488,121.41488,0,0,0,113.88868,0l91.76855,26.99121a71.867,71.867,0,0,1,48.40723,47.59863l27.24414,87.18067,15.27148-4.77344ZM144,203.05566l-4.02344-2.01171A21.66382,21.66382,0,0,1,144,160.75635Zm208,3.71387a71.48722,71.48722,0,0,1-6.46533,29.61963,113.93051,113.93051,0,0,0-11.48706-60.03345L352,170.83179Zm0-81.60156-65.83716-20.25733,60.90943-14.2124c1.67236-.39013,3.31152-.8501,4.92773-1.35376ZM384,181.666A21.54858,21.54858,0,0,1,372.02246,201.044L368,203.05518V160.75684A21.70173,21.70173,0,0,1,384,181.666ZM160,80a48.05375,48.05375,0,0,1,48-48H383.39941A52.24191,52.24191,0,0,1,343.4375,75.11621L160,117.918Zm0,54.34863,95.22046-22.21826L352,141.90869v12.18262l-74.8252,23.023a72.15665,72.15665,0,0,1-15.91406,3.001l9.59961-15.999-13.7207-8.23242-13.95752,23.26172a72.54492,72.54492,0,0,1-8.35693-2.03125L160,154.09131Zm6.46533,102.04053A71.48722,71.48722,0,0,1,160,206.76953V170.83179l17.95239,5.52392A113.93141,113.93141,0,0,0,166.46533,236.38916ZM304,323.22656a105.3493,105.3493,0,0,1-96-.00049V291.82324l16.40918,6.31153a87.85579,87.85579,0,0,0,63.18066,0L304,291.82275Zm1.8457-49.25683-24,9.23144a71.86931,71.86931,0,0,1-51.69238,0l-24-9.23144a71.053,71.053,0,0,1-16.436-8.97657,98.10428,98.10428,0,0,1,3.76806-83.85815l36.63477,11.27222a87.66265,87.66265,0,0,0,51.75976,0L318.51465,181.135a98.105,98.105,0,0,1,3.76831,83.85767A71.04522,71.04522,0,0,1,305.8457,273.96973Z"/><rect height="80" width="16" x="128" y="416"/><rect height="80" width="16" x="368" y="416"/><path d="M278.76758,215.97754a72.4398,72.4398,0,0,1-45.53516,0l-22.70215-7.56738-5.06054,15.17968,22.70215,7.56739a88.55045,88.55045,0,0,0,55.65624,0l22.70215-7.56739-5.06054-15.17968Z"/><path d="M270.12109,253.01758a71.59806,71.59806,0,0,1-28.24121,0l-24.31054-4.86231-3.13868,15.68946,24.31153,4.8623a87.55528,87.55528,0,0,0,34.5166,0l24.31055-4.8623-3.13868-15.68946Z"/></g></svg>