<?xml version="1.0" ?><svg data-name="25-qaunrantine" id="_25-qaunrantine" viewBox="0 0 480 480" xmlns="http://www.w3.org/2000/svg"><path d="M437.121,169.854l-192-160a8,8,0,0,0-10.242,0L168,65.587V48a8,8,0,0,0-8-8H96a8,8,0,0,0-8,8v84.253l-45.121,37.6A8,8,0,0,0,40,176V464a8,8,0,0,0,8,8H432a8,8,0,0,0,8-8V176A8,8,0,0,0,437.121,169.854Zm-300.9,174.158q.941,1.527,2.032,2.987L152,365.338V456H120V360a16.019,16.019,0,0,1,16-16C136.073,344,136.145,344.011,136.218,344.012ZM240,248a39.962,39.962,0,0,0,31.978-16H288a24.028,24.028,0,0,1,24,24v12.686l-18.343-18.343A8,8,0,0,0,288,248H192a8,8,0,0,0-5.657,2.343L168,268.686V256a24.028,24.028,0,0,1,24-24h16.022A39.962,39.962,0,0,0,240,248Zm-24-40a24,24,0,1,1,24,24A24.028,24.028,0,0,1,216,208Zm-62.723,98.037L195.313,264h89.374l42.036,42.037a24.117,24.117,0,0,1,2.226,31.364L306.711,367.06c-7.626,10.473-24.016-1.441-16.623-11.764l20.568-30.858a8,8,0,0,0-1-10.095l-16-16A8,8,0,0,0,280,304v37.579l-1.656,2.486A32.03,32.03,0,0,0,252.313,360h-24.62a32.376,32.376,0,0,0-5.073-6.633,31.81,31.81,0,0,0-20.979-9.325L200,341.579V304a8,8,0,0,0-13.657-5.657l-16,16a8,8,0,0,0-1,10.095l20.565,30.853a10.169,10.169,0,0,1,.918,9.6l-.007.018c-2.131,6.6-13.367,8.609-17.53,2.149L151.052,337.4A24.116,24.116,0,0,1,153.277,306.037ZM312,392h-2.778l1.426-7.843c.457-.236.91-.48,1.352-.743Zm-5.687,16H312v48H297.586ZM248,392H232V376h16Zm-16,16h16v48H232Zm-64-24.582c.442.263.9.507,1.353.743L170.778,392H168ZM168,408h5.687l8.727,48H168Zm30.677,48-12.6-69.284a26.2,26.2,0,0,0,19.492-15.611h0a26.069,26.069,0,0,0,2.032-9.183,15.984,15.984,0,0,1,7.488,8.786A15.612,15.612,0,0,1,216,376v80ZM264,456V376a15.659,15.659,0,0,1,.924-5.337,15.976,15.976,0,0,1,7.471-8.721,26.205,26.205,0,0,0,21.525,24.776L281.323,456Zm64,0V365.338L341.751,347q1.092-1.458,2.032-2.987c.072,0,.144-.012.217-.012a16,16,0,0,1,16,16v96Zm96,0H376V360a32,32,0,0,0-26.683-31.553,40.123,40.123,0,0,0-11.28-33.724L328,284.686V256a40.045,40.045,0,0,0-40-40H279.2a40,40,0,1,0-78.39,0H192a40.045,40.045,0,0,0-40,40v28.686l-10.037,10.037a40.128,40.128,0,0,0-11.28,33.727A32.046,32.046,0,0,0,104,360v96H56V179.747l45.121-37.6A8,8,0,0,0,104,136V56h48V82.667a8,8,0,0,0,13.121,6.146L240,26.414,424,179.747Z"/></svg>