<?xml version="1.0" ?><svg viewBox="0 0 64 64" xmlns="http://www.w3.org/2000/svg"><title/><g id="desinfect-door"><path d="M15.364,22.263s.765,5.529,5.5,6.34" style="fill:none;stroke:#000;stroke-linecap:round;stroke-linejoin:round;stroke-width:2px"/><path d="M27.8,19.165a.79.79,0,1,1-.786-.793A.788.788,0,0,1,27.8,19.165Z"/><path d="M34.115,19.193a.79.79,0,1,1-.786-.793A.79.79,0,0,1,34.115,19.193Z"/><path d="M34.1,23.14a.79.79,0,1,1-.786-.793A.79.79,0,0,1,34.1,23.14Z"/><path d="M34.132,15.245a.79.79,0,1,1-.786-.793A.79.79,0,0,1,34.132,15.245Z"/><path d="M30.964,17.6a.79.79,0,1,1-.786-.793A.79.79,0,0,1,30.964,17.6Z"/><path d="M30.95,20.758a.79.79,0,1,1-.786-.793A.788.788,0,0,1,30.95,20.758Z"/><line style="fill:none;stroke:#000;stroke-linecap:round;stroke-linejoin:round;stroke-width:2px" x1="6" x2="6" y1="2" y2="4"/><line style="fill:none;stroke:#000;stroke-linecap:round;stroke-linejoin:round;stroke-width:2px" x1="6" x2="6" y1="8" y2="10"/><line style="fill:none;stroke:#000;stroke-linecap:round;stroke-linejoin:round;stroke-width:2px" x1="2" x2="4" y1="6" y2="6"/><line style="fill:none;stroke:#000;stroke-linecap:round;stroke-linejoin:round;stroke-width:2px" x1="8" x2="10" y1="6" y2="6"/><polyline points="40 32.682 40 12 61 12 61 62 40 62 40 38.273" style="fill:none;stroke:#000;stroke-linecap:round;stroke-linejoin:round;stroke-width:2px"/><path d="M48.5,33H28V44h5V38H48.5a2.5,2.5,0,0,0,0-5Z" style="fill:none;stroke:#000;stroke-linecap:round;stroke-linejoin:round;stroke-width:2px"/><path d="M54.374,47.5A3.874,3.874,0,1,0,49,51.072V57h3V51.072A3.874,3.874,0,0,0,54.374,47.5Z" style="fill:none;stroke:#000;stroke-linecap:round;stroke-linejoin:round;stroke-width:2px"/><polygon points="8.034 24.982 8.045 23.024 4.097 23.006 4.111 19.848 9.655 15.926 19.918 15.971 19.89 22 14.364 21.975 11.981 25 8.034 24.982" style="fill:none;stroke:#000;stroke-linecap:round;stroke-linejoin:round;stroke-width:2px"/><polyline points="20.144 16.996 23.009 17.009 23 21 20.208 20.992" style="fill:none;stroke:#000;stroke-linecap:round;stroke-linejoin:round;stroke-width:2px"/><path d="M12,29H8a2,2,0,0,1-2-2H6a2,2,0,0,1,2-2h4a2,2,0,0,1,2,2h0A2,2,0,0,1,12,29Z" style="fill:none;stroke:#000;stroke-linecap:round;stroke-linejoin:round;stroke-width:2px"/><path d="M16.256,40H15V29H4V62H21V44.744A4.744,4.744,0,0,0,16.256,40Z" style="fill:none;stroke:#000;stroke-linecap:round;stroke-linejoin:round;stroke-width:2px"/><path d="M46,17a11.13,11.13,0,0,0,9,0" style="fill:none;stroke:#000;stroke-linecap:round;stroke-linejoin:round;stroke-width:2px"/><line style="fill:none;stroke:#000;stroke-linecap:round;stroke-linejoin:round;stroke-width:2px" x1="12" x2="12" y1="47.446" y2="54.554"/><line style="fill:none;stroke:#000;stroke-linecap:round;stroke-linejoin:round;stroke-width:2px" x1="8.519" x2="15.481" y1="51" y2="51"/><line style="fill:none;stroke:#000;stroke-linejoin:round;stroke-width:2px" x1="15" x2="4" y1="40" y2="40"/></g></svg>